<svg width="24" height="24" viewBox="0 0 24 24" fill="none" xmlns="http://www.w3.org/2000/svg">
<path d="M5.8618 4.87597C5.91471 4.37554 6.27451 4 6.70108 4H17.0489C17.4755 4 17.8353 4.37554 17.8882 4.87597C17.8882 4.87597 18.3393 9.14229 18.6283 11.876C18.9173 14.6096 19.3683 18.8759 19.3683 18.8759C19.4314 19.4728 19.0378 20 18.5291 20H5.22092C4.71218 20 4.31855 19.4728 4.38166 18.8759C4.38166 18.8759 4.83271 14.6096 5.12173 11.876C5.41075 9.14229 5.8618 4.87597 5.8618 4.87597Z" stroke="#888888" stroke-width="1.5" stroke-linejoin="round"/>
<path d="M8.375 9C8.375 9 9.15278 11 11.875 11C14.5972 11 15.375 9 15.375 9" stroke="#888888" stroke-width="1.5" stroke-linecap="round" stroke-linejoin="round"/>
</svg>
