<svg width="24" height="24" viewBox="0 0 24 24" fill="none" xmlns="http://www.w3.org/2000/svg">
<path d="M4.5 12V9.2C4.5 8.09543 5.39543 7.2 6.5 7.2H8.1V6.4C8.1 5.07452 9.17452 4 10.5 4C11.8255 4 12.9 5.07452 12.9 6.4V7.2H14.5C15.6046 7.2 16.5 8.09543 16.5 9.2V12H18.1C19.4255 12 20.5 13.0745 20.5 14.4C20.5 15.7255 19.4255 16.8 18.1 16.8H16.5V18C16.5 19.1046 15.6046 20 14.5 20H6.5C5.39543 20 4.5 19.1046 4.5 18V16.8H6.1C7.42548 16.8 8.5 15.7255 8.5 14.4C8.5 13.0745 7.42548 12 6.1 12H4.5Z" stroke="#888888" stroke-width="1.5" stroke-linejoin="round"/>
</svg>
