<svg width="24" height="24" viewBox="0 0 24 24" fill="none" xmlns="http://www.w3.org/2000/svg">
<path d="M15.8437 3H8.22287C8.14493 3 8.0961 3.0857 8.13452 3.15351C8.4316 3.67774 9.3359 5.38815 8.7453 5.81352C8.0453 6.31769 5 6.96209 5 9.56148C5 12.1609 7.81346 14.2439 7.81347 16.7223C7.81347 18.1281 7.35759 19.2615 6.96296 19.9794C6.69198 20.4723 6.78122 21.0982 7.30591 21.301C8.146 21.6256 9.6288 22 12 22C14.4179 22 15.9121 21.6107 16.743 21.2818C17.2472 21.0822 17.3428 20.4864 17.0841 20.0097C16.6797 19.2642 16.1865 18.0774 16.1865 16.7223C16.1865 14.4252 19 12.2818 19 9.56148C19 6.84119 16.0325 6.33626 15.2547 5.81352C14.6008 5.37403 15.5962 3.68475 15.9298 3.15788C15.9728 3.09007 15.924 3 15.8437 3Z" stroke="#888888" stroke-width="1.5"/>
</svg>
